<svg xmlns="http://www.w3.org/2000/svg" width="24" height="24" fill="none" viewBox="0 0 24 24"><path fill="#000" d="M5 3C3.89543 3 3 3.89543 3 5V11C3 12.1046 3.89543 13 5 13H11C12.1046 13 13 12.1046 13 11V5C13 3.89543 12.1046 3 11 3H5zM16 6C14.8954 6 14 6.89543 14 8V11C14 12.1046 14.8954 13 16 13H19C20.1046 13 21 12.1046 21 11V8C21 6.89543 20.1046 6 19 6H16zM14 16C14 14.8954 14.8954 14 16 14H19C20.1046 14 21 14.8954 21 16V19C21 20.1046 20.1046 21 19 21H16C14.8954 21 14 20.1046 14 19V16zM7 14C5.89543 14 5 14.8954 5 16V19C5 20.1046 5.89543 21 7 21H10C11.1046 21 12 20.1046 12 19V16C12 14.8954 11.1046 14 10 14H7z"/></svg>