<svg xmlns="http://www.w3.org/2000/svg" width="24" height="24" fill="none" viewBox="0 0 24 24"><path fill="#000" fill-rule="evenodd" d="M13.4683 2.8876C14.5381 2.77464 15.6313 3.04951 16.451 3.52278C17.2707 3.99604 18.0553 4.80529 18.4924 5.78827C18.9416 6.7985 19.0378 8.04234 18.3481 9.23688L13.8481 17.0311C13.6014 17.4584 13.1215 18.0101 12.4213 18.3254C11.6639 18.6666 10.7251 18.6921 9.75001 18.1292C8.77494 17.5662 8.3277 16.7404 8.24441 15.9139C8.16743 15.1499 8.40526 14.4584 8.65194 14.0311L12.6519 7.1029C12.9281 6.62461 13.5397 6.46074 14.018 6.73688C14.4963 7.01302 14.6601 7.62461 14.384 8.1029L10.384 15.0311C10.2973 15.1812 10.2084 15.4557 10.2343 15.7134C10.254 15.9085 10.3394 16.1601 10.75 16.3971C11.1606 16.6342 11.4212 16.5824 11.6 16.5018C11.8361 16.3955 12.0294 16.1812 12.116 16.0311L16.616 8.23688C16.9264 7.69936 16.9065 7.14417 16.6649 6.60087C16.4112 6.03033 15.9303 5.53156 15.451 5.25483C14.9717 4.97809 14.2992 4.81098 13.6783 4.87654C13.087 4.93898 12.5962 5.19936 12.2859 5.73688L7.28591 14.3971C6.63159 15.5305 7.00018 17.6963 9.25001 18.9952C11.4999 20.2942 13.5598 19.5305 14.2141 18.3971L17.7141 12.335C17.9903 11.8567 18.6018 11.6928 19.0801 11.9689C19.5584 12.2451 19.7223 12.8567 19.4462 13.335L15.9462 19.3971C14.6005 21.7279 11.1963 22.4283 8.25001 20.7273C5.3037 19.0262 4.20819 15.7279 5.55386 13.3971L10.5539 4.73688C11.2435 3.54234 12.3688 3.00369 13.4683 2.8876Z" clip-rule="evenodd"/></svg>