<svg xmlns="http://www.w3.org/2000/svg" width="24" height="24" fill="none" viewBox="0 0 24 24"><path fill="#000" fill-rule="evenodd" d="M5 3C3.89543 3 3 3.89543 3 5V19C3 20.1046 3.89543 21 5 21H19C20.1046 21 21 20.1046 21 19V5C21 3.89543 20.1046 3 19 3H5ZM17 6C16.4477 6 16 6.44771 16 7V17C16 17.5523 16.4477 18 17 18C17.5523 18 18 17.5523 18 17V7C18 6.44772 17.5523 6 17 6ZM12 10C11.4477 10 11 10.4477 11 11V17C11 17.5523 11.4477 18 12 18C12.5523 18 13 17.5523 13 17V11C13 10.4477 12.5523 10 12 10ZM6 15C6 14.4477 6.44772 14 7 14C7.55228 14 8 14.4477 8 15V17C8 17.5523 7.55228 18 7 18C6.44772 18 6 17.5523 6 17V15Z" clip-rule="evenodd"/></svg>