<svg xmlns="http://www.w3.org/2000/svg" width="24" height="24" fill="none" viewBox="0 0 24 24"><path fill="#000" fill-rule="evenodd" d="M15 5H18C19.1046 5 20 5.89543 20 7V19C20 20.1046 19.1046 21 18 21H6C4.89543 21 4 20.1046 4 19V7C4 5.89543 4.89543 5 6 5H9C9 3.34315 10.3431 2 12 2C13.6569 2 15 3.34315 15 5ZM13 5C13 5.55228 12.5523 6 12 6C11.4477 6 11 5.55228 11 5C11 4.44772 11.4477 4 12 4C12.5523 4 13 4.44772 13 5ZM6 9C6 8.44772 6.44772 8 7 8H17C17.5523 8 18 8.44772 18 9C18 9.55228 17.5523 10 17 10H7C6.44772 10 6 9.55228 6 9ZM7 12C6.44772 12 6 12.4477 6 13C6 13.5523 6.44772 14 7 14H17C17.5523 14 18 13.5523 18 13C18 12.4477 17.5523 12 17 12H7ZM7 16C6.44772 16 6 16.4477 6 17C6 17.5523 6.44772 18 7 18H10C10.5523 18 11 17.5523 11 17C11 16.4477 10.5523 16 10 16H7Z" clip-rule="evenodd"/></svg>