<svg xmlns="http://www.w3.org/2000/svg" width="24" height="24" fill="none" viewBox="0 0 24 24"><path fill="#000" fill-rule="evenodd" d="M7 3C6.44772 3 6 3.44772 6 4V5.17071C4.83481 5.58254 4 6.69378 4 8 4 9.30622 4.83481 10.4175 6 10.8293V20C6 20.5523 6.44772 21 7 21 7.55228 21 8 20.5523 8 20V10.8293C9.16519 10.4175 10 9.30622 10 8 10 6.69378 9.16519 5.58254 8 5.17071V4C8 3.44772 7.55228 3 7 3zM8 8C8 8.55229 7.55228 9 7 9 6.44772 9 6 8.55229 6 8 6 7.44772 6.44772 7 7 7 7.55228 7 8 7.44772 8 8zM17 3C16.4477 3 16 3.44772 16 4V12.1707C14.8348 12.5825 14 13.6938 14 15 14 16.3062 14.8348 17.4175 16 17.8293V20C16 20.5523 16.4477 21 17 21 17.5523 21 18 20.5523 18 20V17.8293C19.1652 17.4175 20 16.3062 20 15 20 13.6938 19.1652 12.5825 18 12.1707V4C18 3.44772 17.5523 3 17 3zM18 15C18 15.5523 17.5523 16 17 16 16.4477 16 16 15.5523 16 15 16 14.4477 16.4477 14 17 14 17.5523 14 18 14.4477 18 15z" clip-rule="evenodd"/></svg>