<svg xmlns="http://www.w3.org/2000/svg" width="24" height="24" fill="none" viewBox="0 0 24 24"><path fill="#000" d="M4 7C4.55228 7 5 6.55228 5 6 5 5.44772 4.55228 5 4 5 3.44772 5 3 5.44772 3 6 3 6.55228 3.44772 7 4 7zM4 13C4.55228 13 5 12.5523 5 12 5 11.4477 4.55228 11 4 11 3.44772 11 3 11.4477 3 12 3 12.5523 3.44772 13 4 13zM5 18C5 18.5523 4.55228 19 4 19 3.44772 19 3 18.5523 3 18 3 17.4477 3.44772 17 4 17 4.55228 17 5 17.4477 5 18zM8 5C7.44772 5 7 5.44772 7 6 7 6.55228 7.44772 7 8 7H20C20.5523 7 21 6.55228 21 6 21 5.44772 20.5523 5 20 5H8zM7 12C7 11.4477 7.44772 11 8 11H20C20.5523 11 21 11.4477 21 12 21 12.5523 20.5523 13 20 13H8C7.44772 13 7 12.5523 7 12zM8 17C7.44772 17 7 17.4477 7 18 7 18.5523 7.44772 19 8 19H20C20.5523 19 21 18.5523 21 18 21 17.4477 20.5523 17 20 17H8z"/></svg>