<svg xmlns="http://www.w3.org/2000/svg" width="24" height="24" fill="none" viewBox="0 0 24 24"><path fill="#000" d="M7.5 18.5C8.85748 19.5612 10.1434 20 12 20 16.0796 20 19.446 16.9463 19.9381 13H21.1315C21.9302 13 22.4066 12.1099 21.9635 11.4453L19.832 8.24808C19.4362 7.65434 18.5638 7.65434 18.1679 8.24808L16.0365 11.4453C15.5934 12.1099 16.0698 13 16.8685 13H17.917C17.441 15.8377 14.973 18 12 18 10.9067 18 9.88172 17.7076 8.99897 17.1967L7.5 18.5zM15.001 6.80326C14.1182 6.2924 13.0933 6 12 6 9.02699 6 6.55902 8.16229 6.08294 11H7.13147C7.93016 11 8.40656 11.8901 7.96352 12.5547L5.83204 15.7519C5.43621 16.3457 4.56376 16.3457 4.16794 15.7519L2.03645 12.5547C1.59342 11.8901 2.06981 11 2.8685 11H4.06188C4.55398 7.05369 7.92037 4 12 4 13.8566 4 15.1425 4.43881 16.5 5.5L15.001 6.80326z"/></svg>