<svg xmlns="http://www.w3.org/2000/svg" width="24" height="24" fill="none" viewBox="0 0 24 24"><path fill="#000" d="M3 5.5C3 4.67157 3.67157 4 4.5 4H19.5C20.3284 4 21 4.67157 21 5.5 21 6.32843 20.3284 7 19.5 7H4.5C3.67157 7 3 6.32843 3 5.5zM3 11.5C3 10.6716 3.67157 10 4.5 10H15.5C16.3284 10 17 10.6716 17 11.5 17 12.3284 16.3284 13 15.5 13H4.5C3.67157 13 3 12.3284 3 11.5zM4.5 16C3.67157 16 3 16.6716 3 17.5 3 18.3284 3.67157 19 4.5 19H11.5C12.3284 19 13 18.3284 13 17.5 13 16.6716 12.3284 16 11.5 16H4.5z"/></svg>