<svg xmlns="http://www.w3.org/2000/svg" width="24" height="24" fill="none" viewBox="0 0 24 24"><path fill="#000" d="M10.9749 18.8472C11.6064 18.4713 12.3932 18.472 13.024 18.849L16.3649 20.8458C17.1642 21.324 18.1424 20.6172 17.932 19.7233L17.0547 16.0032C16.883 15.2749 17.1321 14.5117 17.7005 14.025L20.6351 11.5122C21.3398 10.9093 20.9611 9.76599 20.0356 9.69324L16.1529 9.36753C15.416 9.30572 14.7734 8.84237 14.4819 8.16275L12.9676 4.63143C12.61 3.78952 11.39 3.78952 11.0324 4.63143L9.51853 8.15376C9.22678 8.8326 8.58452 9.29528 7.84823 9.35705L3.96443 9.68284C3.03887 9.7556 2.66023 10.8989 3.36492 11.5018L6.29951 14.0146C6.86789 14.5013 7.11704 15.2645 6.94529 15.9928L6.06799 19.7129C5.85763 20.6068 6.83578 21.3136 7.63513 20.8355L10.9749 18.8472Z"/></svg>